<svg xmlns="http://www.w3.org/2000/svg" xmlns:xlink="http://www.w3.org/1999/xlink" width="60" zoomAndPan="magnify" viewBox="0 0 45 30.000001" height="40" preserveAspectRatio="xMidYMid meet" version="1.0"><defs><clipPath id="1afe4f3bbd"><path d="M 8.007812 5.0625 L 42.84375 5.0625 L 42.84375 23.933594 L 8.007812 23.933594 Z M 8.007812 5.0625 " clip-rule="nonzero"/></clipPath></defs><path fill="#0292b7" d="M 22.894531 15.097656 L 23.164062 21.023438 C 24.699219 20.953125 26.238281 20.957031 27.777344 21.027344 C 27.867188 19.050781 27.960938 17.078125 28.054688 15.101562 C 26.335938 15.019531 24.617188 15.015625 22.894531 15.097656 Z M 27.3125 20.425781 C 26.085938 20.367188 24.855469 20.363281 23.628906 20.421875 C 23.554688 18.839844 23.484375 17.261719 23.414062 15.683594 C 24.785156 15.621094 26.160156 15.621094 27.53125 15.683594 C 27.460938 17.269531 27.386719 18.847656 27.3125 20.425781 Z M 27.3125 20.425781 " fill-opacity="1" fill-rule="nonzero"/><path fill="#0292b7" d="M 14.722656 17.457031 C 14.226562 17.554688 13.730469 17.660156 13.238281 17.777344 C 13.136719 17.335938 13.039062 16.898438 12.9375 16.460938 C 13.441406 16.34375 13.949219 16.234375 14.457031 16.132812 C 14.546875 16.574219 14.632812 17.015625 14.722656 17.457031 Z M 14.722656 17.457031 " fill-opacity="1" fill-rule="nonzero"/><path fill="#0292b7" d="M 15.027344 19 C 14.546875 19.097656 14.066406 19.203125 13.585938 19.3125 C 13.488281 18.871094 13.386719 18.433594 13.289062 17.996094 C 13.777344 17.882812 14.269531 17.777344 14.765625 17.675781 C 14.851562 18.117188 14.941406 18.558594 15.027344 19 Z M 15.027344 19 " fill-opacity="1" fill-rule="nonzero"/><path fill="#0292b7" d="M 16.777344 18.679688 C 16.296875 18.757812 15.8125 18.847656 15.332031 18.941406 C 15.246094 18.496094 15.160156 18.054688 15.074219 17.613281 C 15.566406 17.519531 16.0625 17.429688 16.558594 17.347656 C 16.632812 17.789062 16.707031 18.234375 16.777344 18.679688 Z M 16.777344 18.679688 " fill-opacity="1" fill-rule="nonzero"/><path fill="#0292b7" d="M 16.523438 17.125 C 16.023438 17.207031 15.527344 17.296875 15.03125 17.394531 C 14.945312 16.953125 14.859375 16.507812 14.773438 16.066406 C 15.28125 15.96875 15.792969 15.875 16.304688 15.792969 C 16.375 16.238281 16.449219 16.679688 16.523438 17.125 Z M 16.523438 17.125 " fill-opacity="1" fill-rule="nonzero"/><path fill="#0292b7" d="M 35.589844 17.351562 C 35.09375 17.257812 34.597656 17.167969 34.097656 17.089844 C 34.167969 16.644531 34.242188 16.199219 34.3125 15.753906 C 34.820312 15.835938 35.332031 15.925781 35.839844 16.023438 Z M 35.589844 17.351562 " fill-opacity="1" fill-rule="nonzero"/><path fill="#0292b7" d="M 35.296875 18.898438 C 34.816406 18.804688 34.332031 18.722656 33.847656 18.644531 C 33.917969 18.199219 33.992188 17.753906 34.0625 17.308594 C 34.558594 17.390625 35.054688 17.476562 35.546875 17.570312 C 35.464844 18.015625 35.378906 18.457031 35.296875 18.898438 Z M 35.296875 18.898438 " fill-opacity="1" fill-rule="nonzero"/><path fill="#0292b7" d="M 37.039062 19.261719 C 36.558594 19.15625 36.078125 19.054688 35.597656 18.957031 C 35.683594 18.515625 35.769531 18.074219 35.855469 17.632812 C 36.351562 17.730469 36.84375 17.832031 37.335938 17.945312 C 37.238281 18.382812 37.136719 18.824219 37.039062 19.261719 Z M 37.039062 19.261719 " fill-opacity="1" fill-rule="nonzero"/><path fill="#0292b7" d="M 37.382812 17.726562 C 36.890625 17.613281 36.394531 17.511719 35.898438 17.410156 C 35.984375 16.96875 36.070312 16.527344 36.15625 16.085938 C 36.664062 16.1875 37.171875 16.292969 37.679688 16.410156 C 37.582031 16.847656 37.484375 17.289062 37.382812 17.726562 Z M 37.382812 17.726562 " fill-opacity="1" fill-rule="nonzero"/><g clip-path="url(#1afe4f3bbd)"><path fill="#0292b7" d="M 40.699219 14.890625 C 39.746094 13.835938 38.742188 12.800781 37.683594 11.792969 C 36.753906 10.894531 35.785156 10.019531 34.773438 9.167969 C 34.003906 9.476562 33.246094 9.800781 32.503906 10.140625 L 32.832031 7.496094 C 31.527344 7.332031 30.222656 7.210938 28.910156 7.128906 C 28.898438 7.335938 28.886719 7.546875 28.871094 7.753906 C 27.785156 6.832031 26.648438 5.933594 25.464844 5.066406 C 23.148438 6.703125 20.960938 8.5 18.902344 10.457031 C 17.976562 10.007812 17.035156 9.578125 16.070312 9.171875 C 13.539062 11.238281 11.207031 13.503906 9.070312 15.980469 C 8.707031 16.398438 8.351562 16.824219 8.007812 17.253906 C 8.371094 17.136719 8.738281 17.019531 9.105469 16.90625 C 9.808594 19.246094 10.511719 21.585938 11.214844 23.921875 C 15.847656 22.515625 20.582031 21.8125 25.417969 21.8125 C 30.257812 21.8125 34.992188 22.515625 39.621094 23.921875 C 40.324219 21.585938 41.03125 19.246094 41.734375 16.90625 C 42.101562 17.019531 42.46875 17.136719 42.832031 17.253906 C 42.152344 16.453125 41.441406 15.664062 40.699219 14.890625 Z M 15.519531 21.796875 C 14.328125 22.039062 13.144531 22.324219 11.96875 22.652344 C 11.382812 20.539062 10.792969 18.425781 10.207031 16.316406 C 12.078125 14.203125 14.09375 12.246094 16.257812 10.441406 C 16.875 10.699219 17.488281 10.964844 18.089844 11.242188 C 17.816406 11.511719 17.550781 11.78125 17.285156 12.054688 C 16.859375 12.496094 16.445312 12.9375 16.039062 13.386719 C 16.425781 13.324219 16.816406 13.261719 17.203125 13.207031 C 17.601562 15.90625 17.996094 18.605469 18.390625 21.304688 C 17.429688 21.4375 16.472656 21.605469 15.519531 21.796875 Z M 19.496094 21.15625 C 19.136719 18.34375 18.773438 15.527344 18.40625 12.714844 C 18.707031 12.414062 19.007812 12.117188 19.316406 11.820312 C 19.578125 11.566406 19.84375 11.3125 20.113281 11.0625 C 21.808594 9.492188 23.59375 8.03125 25.464844 6.679688 C 26.957031 7.761719 28.375 8.894531 29.714844 10.078125 C 29.75 9.546875 29.789062 9.015625 29.824219 8.484375 C 30.378906 8.527344 30.929688 8.574219 31.480469 8.625 C 31.414062 9.324219 31.347656 10.023438 31.28125 10.726562 C 31.257812 10.964844 31.234375 11.203125 31.214844 11.445312 C 31.335938 11.5625 31.460938 11.679688 31.582031 11.796875 C 31.898438 12.101562 32.210938 12.414062 32.519531 12.726562 C 32.183594 15.542969 31.851562 18.359375 31.515625 21.175781 C 27.507812 20.683594 23.5 20.675781 19.496094 21.15625 Z M 38.871094 22.652344 L 38.84375 22.644531 C 36.765625 22.0625 34.660156 21.617188 32.523438 21.3125 C 32.917969 18.613281 33.316406 15.914062 33.71875 13.214844 C 34.105469 13.273438 34.496094 13.332031 34.882812 13.398438 C 34.191406 12.667969 33.46875 11.953125 32.722656 11.253906 C 33.335938 10.972656 33.953125 10.703125 34.585938 10.441406 C 35.863281 11.507812 37.078125 12.617188 38.226562 13.761719 C 38.664062 14.195312 39.09375 14.636719 39.507812 15.082031 C 39.890625 15.488281 40.265625 15.898438 40.632812 16.3125 C 40.046875 18.425781 39.457031 20.539062 38.871094 22.652344 Z M 38.871094 22.652344 " fill-opacity="1" fill-rule="nonzero"/></g></svg>